<svg width="16" height="16" viewBox="0 0 16 16" fill="none" xmlns="http://www.w3.org/2000/svg">
  <rect width="16" height="16" rx="8" fill="#2563eb"/>
  <path d="M8 3C8.41421 3 8.75 3.33579 8.75 3.75V6.75H11.75C12.1642 6.75 12.5 7.08579 12.5 7.5V8.5C12.5 8.91421 12.1642 9.25 11.75 9.25H8.75V12.25C8.75 12.6642 8.41421 13 8 13C7.58579 13 7.25 12.6642 7.25 12.25V9.25H4.25C3.83579 9.25 3.5 8.91421 3.5 8.5V7.5C3.5 7.08579 3.83579 6.75 4.25 6.75H7.25V3.75C7.25 3.33579 7.58579 3 8 3Z" fill="white"/>
  <circle cx="11" cy="5" r="1" fill="#10b981"/>
</svg>