<svg width="32" height="32" viewBox="0 0 32 32" fill="none" xmlns="http://www.w3.org/2000/svg">
  <rect width="32" height="32" rx="16" fill="#2563eb"/>
  <path d="M16 6C16.8284 6 17.5 6.67157 17.5 7.5V13.5H23.5C24.3284 13.5 25 14.1716 25 15V17C25 17.8284 24.3284 18.5 23.5 18.5H17.5V24.5C17.5 25.3284 16.8284 26 16 26C15.1716 26 14.5 25.3284 14.5 24.5V18.5H8.5C7.67157 18.5 7 17.8284 7 17V15C7 14.1716 7.67157 14.5 8.5 14.5H14.5V7.5C14.5 6.67157 15.1716 6 16 6Z" fill="white"/>
  <circle cx="22" cy="10" r="2" fill="#10b981"/>
</svg>